<svg xmlns="http://www.w3.org/2000/svg" xmlns:xlink="http://www.w3.org/1999/xlink" viewBox="0 0 60.43 60.43"><defs><style>.cls-1{fill:url(#linear-gradient);}</style><linearGradient id="linear-gradient" y1="30.21" x2="60.43" y2="30.21" gradientUnits="userSpaceOnUse"><stop offset="0" stop-color="#ff795f"/><stop offset="1" stop-color="#ce1768"/></linearGradient></defs><title>CMS</title><g id="Layer_2" data-name="Layer 2"><g id="Layer_1-2" data-name="Layer 1"><path class="cls-1" d="M4.85,18a1.2,1.2,0,0,0-2.23-.08A30.22,30.22,0,0,0,17,57.4a1.2,1.2,0,0,0,1.66-1.5ZM2.41,30.21a27.61,27.61,0,0,1,1.28-8.36L15.32,53.7A27.6,27.6,0,0,1,2.41,30.21ZM40.76,56.74l-8.91-24.4a1.2,1.2,0,0,0-1.13-.79h0a1.2,1.2,0,0,0-1.13.81l-8.7,25.29a1.2,1.2,0,0,0,.8,1.55,30.22,30.22,0,0,0,18.57-.48,1.2,1.2,0,0,0,.63-1.77A1.66,1.66,0,0,1,40.76,56.74ZM30.21,58a27.81,27.81,0,0,1-6.64-.8l7.18-20.86,7.48,20.49A27.74,27.74,0,0,1,30.21,58ZM44.06,47.67a1.2,1.2,0,0,0,1.13-.8l3.2-9A27.86,27.86,0,0,0,50.68,28a14,14,0,0,0-2.23-7.89l0,0-.35-.56c-1.25-2-2.32-3.75-2.32-5.61A3.83,3.83,0,0,1,49.43,10h.3a1.2,1.2,0,0,0,.89-2.09A30.21,30.21,0,0,0,5,13.62a1.2,1.2,0,0,0,1,1.87c.74,0,1.38,0,1.91,0,2.8,0,6.89-.3,7.69-.36a1.34,1.34,0,0,1,0,1c-.32,0-1.69.18-3.17.26A1.2,1.2,0,0,0,11.3,18l9.5,28.27a1.2,1.2,0,0,0,1.14.82h0a1.2,1.2,0,0,0,1.14-.82l6.35-19a1.2,1.2,0,0,0,0-.8L26,17.19a1.2,1.2,0,0,0-1.06-.78c-1.37-.08-2.69-.23-2.93-.26a1.42,1.42,0,0,1,0-1c.83.06,5,.36,7.59.36,2.8,0,6.89-.3,7.69-.36a1.34,1.34,0,0,1,0,1c-.32,0-1.69.18-3.17.26A1.2,1.2,0,0,0,33.07,18l9.84,28.86a1.2,1.2,0,0,0,1.13.82Zm-8.2-29c1-.08,1.77-.17,1.81-.18,1.38-.16,2.28-1.5,2.13-3.19s-1.18-2.68-2.53-2.6h0s-4.69.36-7.64.36c-2.77,0-7.5-.36-7.55-.37h0c-1.37-.08-2.44,1.07-2.54,2.74s.81,2.94,2.17,3c.19,0,1.15.14,2.3.23l3,8.11L21.93,42.09,14.08,18.7c1-.08,1.78-.17,1.82-.18,1.38-.16,2.28-1.5,2.13-3.19s-1.18-2.68-2.53-2.6h0s-4.24.33-7.19.36a27.8,27.8,0,0,1,38.77-5,6.37,6.37,0,0,0-3.71,5.85c0,2.55,1.3,4.65,2.69,6.88l.33.54A11.63,11.63,0,0,1,48.27,28,26,26,0,0,1,46.14,37v0L44.08,42.8Zm20.87-3a1.2,1.2,0,0,0-2.25.74,21.11,21.11,0,0,1,.18,2.82,26.26,26.26,0,0,1-2.12,9.94l0,.05L43.66,54.89a1.2,1.2,0,0,0,1.74,1.43A30.22,30.22,0,0,0,56.72,15.72ZM47.11,52.29l7.68-22.2a31.15,31.15,0,0,0,2.09-7.76,27.8,27.8,0,0,1-9.77,30Z"/></g></g></svg>