<svg xmlns="http://www.w3.org/2000/svg" xmlns:xlink="http://www.w3.org/1999/xlink" viewBox="0 0 70 70">
    <defs>
        <style>
        .cls-1,
        .cls-12,
        .cls-3,
        .cls-5,
        .cls-8 {
            fill: none;
        }

        .cls-1,
        .cls-10,
        .cls-11,
        .cls-12,
        .cls-2,
        .cls-3,
        .cls-4,
        .cls-5,
        .cls-6,
        .cls-7,
        .cls-8,
        .cls-9 {
            stroke-linecap: round;
            stroke-linejoin: round;
            stroke-width: 2px;
        }

        .cls-1 {
            stroke: url(#linear-gradient);
        }

        .cls-10,
        .cls-11,
        .cls-2,
        .cls-4,
        .cls-6,
        .cls-7,
        .cls-9 {
            fill: #fff;
        }

        .cls-2 {
            stroke: url(#linear-gradient-2);
        }

        .cls-3 {
            stroke: url(#linear-gradient-3);
        }

        .cls-4 {
            stroke: url(#linear-gradient-4);
        }

        .cls-5 {
            stroke: url(#linear-gradient-5);
        }

        .cls-6 {
            stroke: url(#linear-gradient-6);
        }

        .cls-7 {
            stroke: url(#linear-gradient-7);
        }

        .cls-8 {
            stroke: url(#linear-gradient-8);
        }

        .cls-9 {
            stroke: url(#linear-gradient-9);
        }

        .cls-10 {
            stroke: url(#linear-gradient-10);
        }

        .cls-11 {
            stroke: url(#linear-gradient-11);
        }

        .cls-12 {
            stroke: url(#linear-gradient-12);
        }
        </style>
        <linearGradient id="linear-gradient" x1="4.98" y1="12.61" x2="12.29" y2="12.61" gradientUnits="userSpaceOnUse">
            <stop offset="0" stop-color="#ff795f" />
            <stop offset="1" stop-color="#ce1768" />
        </linearGradient>
        <linearGradient id="linear-gradient-2" x1="4.98" y1="7.92" x2="12.29" y2="7.92" xlink:href="#linear-gradient" />
        <linearGradient id="linear-gradient-3" x1="22.77" y1="12.61" x2="30.08" y2="12.61" xlink:href="#linear-gradient" />
        <linearGradient id="linear-gradient-4" x1="22.77" y1="7.92" x2="30.08" y2="7.92" xlink:href="#linear-gradient" />
        <linearGradient id="linear-gradient-5" x1="13.65" y1="12.61" x2="21.73" y2="12.61" xlink:href="#linear-gradient" />
        <linearGradient id="linear-gradient-6" x1="13.65" y1="5.01" x2="20.68" y2="5.01" xlink:href="#linear-gradient" />
        <linearGradient id="linear-gradient-7" x1="13.65" y1="9.22" x2="21.73" y2="9.22" xlink:href="#linear-gradient" />
        <linearGradient id="linear-gradient-8" x1="0" y1="44.81" x2="45.95" y2="44.81" xlink:href="#linear-gradient" />
        <linearGradient id="linear-gradient-9" x1="5.56" y1="35.21" x2="7.56" y2="35.21" xlink:href="#linear-gradient" />
        <linearGradient id="linear-gradient-10" x1="5.56" y1="50.54" x2="7.56" y2="50.54" xlink:href="#linear-gradient" />
        <linearGradient id="linear-gradient-11" x1="32.3" y1="45" x2="34.3" y2="45" xlink:href="#linear-gradient" />
        <linearGradient id="linear-gradient-12" x1="32.3" y1="44.88" x2="40.51" y2="44.88" xlink:href="#linear-gradient" />
    </defs>
    <title>Design_2</title>
    <g id="Layer_2" data-name="Layer 2">
        <g id="Layer_1-2" data-name="Layer 1">
            <polygon class="cls-1" points="11.29 7.92 8.63 1 5.98 7.92 5.98 24.22 11.29 24.22 11.29 7.92" />
            <line class="cls-2" x1="5.98" y1="7.92" x2="11.29" y2="7.92" />
            <polygon class="cls-3" points="29.08 7.92 26.43 1 23.77 7.92 23.77 24.22 29.08 24.22 29.08 7.92" />
            <line class="cls-4" x1="23.77" y1="7.92" x2="29.08" y2="7.92" />
            <path class="cls-5" d="M15.62,1h4.14a1,1,0,0,1,1,1V24.22a0,0,0,0,1,0,0H14.65a0,0,0,0,1,0,0V2A1,1,0,0,1,15.62,1Z" />
            <line class="cls-6" x1="14.65" y1="5.01" x2="19.68" y2="5.01" />
            <line class="cls-7" x1="14.65" y1="9.22" x2="20.73" y2="9.22" />
            <path class="cls-8" d="M45,39.31v12a4.55,4.55,0,0,1-4.27,4.78H33.51V65.4H1V24.22H33.51V34.53h7.17A4.55,4.55,0,0,1,45,39.31Z" />
            <line class="cls-9" x1="6.56" y1="32.41" x2="6.56" y2="38" />
            <line class="cls-10" x1="6.56" y1="43.79" x2="6.56" y2="57.29" />
            <line class="cls-11" x1="33.3" y1="51.51" x2="33.3" y2="38.49" />
            <rect class="cls-12" x="33.3" y="40.25" width="6.21" height="9.26" />
        </g>
    </g>
</svg>