<svg xmlns="http://www.w3.org/2000/svg" xmlns:xlink="http://www.w3.org/1999/xlink" viewBox="0 0 62.38 62.38"><defs><style>.cls-1,.cls-2{fill:none;stroke-linecap:round;stroke-linejoin:round;stroke-width:2px;}.cls-1{stroke:url(#linear-gradient);}.cls-2{stroke:url(#linear-gradient-2);}</style><linearGradient id="linear-gradient" y1="31.19" x2="62.38" y2="31.19" gradientUnits="userSpaceOnUse"><stop offset="0" stop-color="#ff795f"/><stop offset="1" stop-color="#ce1768"/></linearGradient><linearGradient id="linear-gradient-2" x1="16.95" y1="30.19" x2="45.43" y2="30.19" xlink:href="#linear-gradient"/></defs><title>Devops</title><g id="Layer_2" data-name="Layer 2"><g id="Layer_1-2" data-name="Layer 1"><path class="cls-1" d="M52.77,40.12l0,.09a9.7,9.7,0,0,0,.61,8.91l1,1.61-3.61,3.6-1.61-1a9.72,9.72,0,0,0-8.91-.6l-.09,0a9.92,9.92,0,0,0-6,6.87l-.4,1.73H28.64l-.4-1.73a9.94,9.94,0,0,0-6-6.87l-.09,0a9.7,9.7,0,0,0-8.92.61l-1.59,1L8,50.73l1-1.63a9.71,9.71,0,0,0,.6-8.91l0-.09a9.9,9.9,0,0,0-6.86-6L1,33.74V28.64l1.74-.41a9.94,9.94,0,0,0,6.87-6l0-.09a9.69,9.69,0,0,0-.6-8.9L8,11.65,11.65,8l1.62,1a9.69,9.69,0,0,0,8.9.6l.09,0a9.94,9.94,0,0,0,6-6.87L28.64,1h5.11l.4,1.73a9.92,9.92,0,0,0,6,6.87l.09,0A9.7,9.7,0,0,0,49.12,9l1.61-1,3.61,3.61-1,1.6a9.69,9.69,0,0,0-.61,8.92l0,.09a9.94,9.94,0,0,0,6.87,6l1.73.4v5.11l-1.73.4A9.92,9.92,0,0,0,52.77,40.12Z"/><circle class="cls-2" cx="31.19" cy="30.19" r="13.24"/></g></g></svg>