<svg xmlns="http://www.w3.org/2000/svg" xmlns:xlink="http://www.w3.org/1999/xlink" viewBox="0 0 95.19 57.68"><defs><style>.cls-1,.cls-2,.cls-3,.cls-4,.cls-5,.cls-6{fill:none;stroke-linecap:round;stroke-linejoin:round;stroke-width:2px;}.cls-1{stroke:url(#linear-gradient);}.cls-2{stroke:url(#linear-gradient-2);}.cls-3{stroke:url(#linear-gradient-3);}.cls-4{stroke:url(#linear-gradient-4);}.cls-5{stroke:url(#linear-gradient-5);}.cls-6{stroke:url(#linear-gradient-6);}</style><linearGradient id="linear-gradient" x1="11.49" y1="25.82" x2="83.7" y2="25.82" gradientUnits="userSpaceOnUse"><stop offset="0" stop-color="#ff795f"/><stop offset="1" stop-color="#ce1768"/></linearGradient><linearGradient id="linear-gradient-2" x1="0" y1="53.66" x2="95.19" y2="53.66" xlink:href="#linear-gradient"/><linearGradient id="linear-gradient-3" x1="15.78" y1="25.86" x2="78.4" y2="25.86" xlink:href="#linear-gradient"/><linearGradient id="linear-gradient-4" x1="36.27" y1="26.49" x2="38.27" y2="26.49" xlink:href="#linear-gradient"/><linearGradient id="linear-gradient-5" x1="-178.44" y1="10.53" x2="-176.44" y2="10.53" gradientTransform="translate(-130.14 37.02) rotate(180)" xlink:href="#linear-gradient"/><linearGradient id="linear-gradient-6" x1="-186.72" y1="10.53" x2="-184.72" y2="10.53" gradientTransform="translate(-130.14 37.02) rotate(180)" xlink:href="#linear-gradient"/></defs><title>Digital transformation</title><g id="Layer_2" data-name="Layer 2"><g id="Layer_1-2" data-name="Layer 1"><path class="cls-1" d="M17.42,1H77.77A4.93,4.93,0,0,1,82.7,5.93v44.7a0,0,0,0,1,0,0H12.49a0,0,0,0,1,0,0V5.93A4.93,4.93,0,0,1,17.42,1Z"/><path class="cls-2" d="M1,50.63H94.19a0,0,0,0,1,0,0v0a6.05,6.05,0,0,1-6.05,6.05H7.05A6.05,6.05,0,0,1,1,50.63v0a0,0,0,0,1,0,0Z"/><rect class="cls-3" x="16.78" y="5.55" width="60.62" height="40.61"/><line class="cls-4" x1="37.27" y1="15.49" x2="37.27" y2="37.49"/><line class="cls-5" x1="47.3" y1="30.93" x2="47.3" y2="22.05"/><line class="cls-6" x1="55.58" y1="36.91" x2="55.58" y2="16.07"/></g></g></svg>