<svg xmlns="http://www.w3.org/2000/svg" xmlns:xlink="http://www.w3.org/1999/xlink" viewBox="0 0 70 70">
    <defs>
        <style>
        .cls-1,
        .cls-12,
        .cls-2,
        .cls-3,
        .cls-4,
        .cls-5,
        .cls-6,
        .cls-7 {
            fill: none;
        }

        .cls-1,
        .cls-10,
        .cls-11,
        .cls-12,
        .cls-2,
        .cls-3,
        .cls-4,
        .cls-5,
        .cls-6,
        .cls-7,
        .cls-8,
        .cls-9 {
            stroke-linecap: round;
            stroke-miterlimit: 10;
            stroke-width: 2px;
        }

        .cls-1 {
            stroke: url(#linear-gradient);
        }

        .cls-2 {
            stroke-dasharray: 1.95 3.91;
            stroke: url(#linear-gradient-2);
        }

        .cls-3 {
            stroke: url(#linear-gradient-3);
        }

        .cls-4 {
            stroke: url(#linear-gradient-4);
        }

        .cls-5 {
            stroke-dasharray: 1.94 3.88;
            stroke: url(#linear-gradient-5);
        }

        .cls-6 {
            stroke: url(#linear-gradient-6);
        }

        .cls-7 {
            stroke: url(#linear-gradient-7);
        }

        .cls-10,
        .cls-11,
        .cls-8,
        .cls-9 {
            fill: #fff;
        }

        .cls-8 {
            stroke: url(#linear-gradient-8);
        }

        .cls-9 {
            stroke: url(#linear-gradient-9);
        }

        .cls-10 {
            stroke: url(#linear-gradient-10);
        }

        .cls-11 {
            stroke: url(#linear-gradient-11);
        }

        .cls-12 {
            stroke: url(#linear-gradient-12);
        }
        </style>
        <linearGradient id="linear-gradient" x1="51.46" y1="4.96" x2="72.81" y2="4.96" gradientUnits="userSpaceOnUse">
            <stop offset="0" stop-color="#ff795f" />
            <stop offset="1" stop-color="#ce1768" />
        </linearGradient>
        <linearGradient id="linear-gradient-2" x1="51.46" y1="33.89" x2="72.81" y2="33.89" xlink:href="#linear-gradient" />
        <linearGradient id="linear-gradient-3" x1="51.46" y1="61.07" x2="72.81" y2="61.07" xlink:href="#linear-gradient" />
        <linearGradient id="linear-gradient-4" x1="0" y1="4.96" x2="21.13" y2="4.96" xlink:href="#linear-gradient" />
        <linearGradient id="linear-gradient-5" x1="0" y1="33.81" x2="21.13" y2="33.81" xlink:href="#linear-gradient" />
        <linearGradient id="linear-gradient-6" x1="0" y1="61.2" x2="21.13" y2="61.2" xlink:href="#linear-gradient" />
        <linearGradient id="linear-gradient-7" x1="19.11" y1="32.43" x2="53.7" y2="32.43" xlink:href="#linear-gradient" />
        <linearGradient id="linear-gradient-8" x1="20.11" y1="8.42" x2="52.7" y2="8.42" xlink:href="#linear-gradient" />
        <linearGradient id="linear-gradient-9" x1="20.11" y1="49.41" x2="52.7" y2="49.41" xlink:href="#linear-gradient" />
        <linearGradient id="linear-gradient-10" x1="29" y1="5.24" x2="37.4" y2="5.24" xlink:href="#linear-gradient" />
        <linearGradient id="linear-gradient-11" x1="39.52" y1="5.24" x2="44.24" y2="5.24" xlink:href="#linear-gradient" />
        <linearGradient id="linear-gradient-12" x1="32.4" y1="56.03" x2="40.41" y2="56.03" xlink:href="#linear-gradient" />
    </defs>
    <title>Mobile_3</title>
    <g id="Layer_2" data-name="Layer 2">
        <g id="Layer_1-2" data-name="Layer 1">
            <line class="cls-1" x1="52.68" y1="4.81" x2="53.63" y2="5.11" />
            <path class="cls-2" d="M57.35,6.29l13,4.14A2.06,2.06,0,0,1,71.71,13l-15,47.1a2.06,2.06,0,0,1-1.42,1.36" />
            <line class="cls-3" x1="53.42" y1="61.22" x2="52.46" y2="60.92" />
            <line class="cls-4" x1="20.13" y1="4.81" x2="19.18" y2="5.11" />
            <path class="cls-5" d="M15.48,6.29l-13,4.15A2.06,2.06,0,0,0,1.1,13l15,47.1a2.05,2.05,0,0,0,1,1.22" />
            <line class="cls-6" x1="19" y1="61.35" x2="19.95" y2="61.04" />
            <path class="cls-7" d="M23.86,1H49.51A3.19,3.19,0,0,1,52.7,4.19v56A3.66,3.66,0,0,1,49,63.86H23.3a3.19,3.19,0,0,1-3.19-3.19V4.75A3.75,3.75,0,0,1,23.86,1Z" />
            <line class="cls-8" x1="20.11" y1="8.42" x2="52.7" y2="8.42" />
            <line class="cls-9" x1="20.11" y1="49.41" x2="52.7" y2="49.41" />
            <line class="cls-10" x1="30" y1="5.24" x2="36.4" y2="5.24" />
            <line class="cls-11" x1="40.52" y1="5.24" x2="43.24" y2="5.24" />
            <circle class="cls-12" cx="36.4" cy="56.03" r="3" />
        </g>
    </g>
</svg>