<svg xmlns="http://www.w3.org/2000/svg" viewBox="0 0 60.43 60.43"><defs><style>.cls-1{fill:url(#linear-gradient);}</style><linearGradient id="linear-gradient" x2="60.43" y1="30.21" y2="30.21" gradientUnits="userSpaceOnUse"><stop offset="0" stop-color="#ff795f"/><stop offset="1" stop-color="#ce1768"/></linearGradient></defs><title>CMS</title><g id="Layer_2"><path id="Layer_1-2" d="M4.85 18a1.2 1.2 0 0 0-2.23-.08A30.22 30.22 0 0 0 17 57.4a1.2 1.2 0 0 0 1.66-1.5zM2.4 30.2a27.6 27.6 0 0 1 1.3-8.35L15.3 53.7a27.6 27.6 0 0 1-12.9-23.5zm38.36 26.54l-8.9-24.4a1.2 1.2 0 0 0-1.14-.8 1.2 1.2 0 0 0-1.13.82l-8.7 25.3a1.2 1.2 0 0 0 .8 1.54 30.22 30.22 0 0 0 18.56-.48 1.2 1.2 0 0 0 .63-1.77 1.66 1.66 0 0 1-.14-.2zM30.2 58a27.8 27.8 0 0 1-6.63-.8l7.18-20.86 7.48 20.5A27.74 27.74 0 0 1 30.2 58zm13.86-10.33a1.2 1.2 0 0 0 1.13-.8l3.2-9A27.86 27.86 0 0 0 50.67 28a14 14 0 0 0-2.23-7.9l-.35-.55c-1.25-2-2.32-3.75-2.32-5.6A3.83 3.83 0 0 1 49.43 10h.3a1.2 1.2 0 0 0 .9-2.1A30.2 30.2 0 0 0 5 13.63a1.2 1.2 0 0 0 1 1.87c.74 0 1.38 0 1.9 0 2.8 0 6.9-.3 7.7-.37a1.34 1.34 0 0 1 0 1c-.32 0-1.7.18-3.17.26A1.2 1.2 0 0 0 11.3 18l9.5 28.27a1.2 1.2 0 0 0 1.14.82 1.2 1.2 0 0 0 1.14-.83l6.35-19a1.2 1.2 0 0 0 0-.8L26 17.2a1.2 1.2 0 0 0-1.06-.8c-1.37-.07-2.7-.22-2.93-.25a1.42 1.42 0 0 1 0-1c.84.06 5 .36 7.6.36 2.8 0 6.9-.3 7.7-.35a1.34 1.34 0 0 1 0 1c-.33 0-1.7.18-3.18.26a1.2 1.2 0 0 0-1.05 1.6l9.84 28.86a1.2 1.2 0 0 0 1.14.82zm-8.2-29c1-.08 1.77-.17 1.8-.18 1.4-.17 2.3-1.5 2.14-3.2s-1.18-2.68-2.53-2.6-4.7.36-7.64.36c-2.77 0-7.5-.36-7.55-.37-1.37-.1-2.44 1.06-2.54 2.73s.8 2.94 2.17 3c.2 0 1.16.14 2.3.23l3 8.1-5.07 15.33-7.85-23.4c1-.08 1.78-.17 1.82-.18 1.38-.16 2.28-1.5 2.13-3.2s-1.18-2.67-2.53-2.6-4.24.34-7.2.37a27.8 27.8 0 0 1 38.78-5 6.37 6.37 0 0 0-3.7 5.84c0 2.55 1.3 4.65 2.68 6.88l.33.54A11.63 11.63 0 0 1 48.26 28a26 26 0 0 1-2.13 9l-2.06 5.8zm20.87-3a1.2 1.2 0 0 0-2.25.74 21.1 21.1 0 0 1 .18 2.83 26.26 26.26 0 0 1-2.12 9.94v.05L43.66 54.9a1.2 1.2 0 0 0 1.74 1.42 30.22 30.22 0 0 0 11.32-40.6zM47.1 52.3l7.7-22.2a31.15 31.15 0 0 0 2.08-7.77 27.8 27.8 0 0 1-9.77 30z" class="cls-1"/></g></svg>