<svg xmlns="http://www.w3.org/2000/svg" xmlns:xlink="http://www.w3.org/1999/xlink" viewBox="0 0 70 70"><defs><style>.cls-1, .cls-12, .cls-3, .cls-5, .cls-8 { fill: none; } .cls-1, .cls-10, .cls-11, .cls-12, .cls-2, .cls-3, .cls-4, .cls-5, .cls-6, .cls-7, .cls-8, .cls-9 { stroke-linecap: round; stroke-linejoin: round; stroke-width: 2px; } .cls-1 { stroke: url(#linear-gradient); } .cls-10, .cls-11, .cls-2, .cls-4, .cls-6, .cls-7, .cls-9 { fill: #fff; } .cls-2 { stroke: url(#linear-gradient-2); } .cls-3 { stroke: url(#linear-gradient-3); } .cls-4 { stroke: url(#linear-gradient-4); } .cls-5 { stroke: url(#linear-gradient-5); } .cls-6 { stroke: url(#linear-gradient-6); } .cls-7 { stroke: url(#linear-gradient-7); } .cls-8 { stroke: url(#linear-gradient-8); } .cls-9 { stroke: url(#linear-gradient-9); } .cls-10 { stroke: url(#linear-gradient-10); } .cls-11 { stroke: url(#linear-gradient-11); } .cls-12 { stroke: url(#linear-gradient-12); }</style><linearGradient id="linear-gradient" x1="4.98" x2="12.29" y1="12.61" y2="12.61" gradientUnits="userSpaceOnUse"><stop offset="0" stop-color="#ff795f"/><stop offset="1" stop-color="#ce1768"/></linearGradient><linearGradient id="linear-gradient-2" x1="4.98" x2="12.29" y1="7.92" y2="7.92" xlink:href="#linear-gradient"/><linearGradient id="linear-gradient-3" x1="22.77" x2="30.08" y1="12.61" y2="12.61" xlink:href="#linear-gradient"/><linearGradient id="linear-gradient-4" x1="22.77" x2="30.08" y1="7.92" y2="7.92" xlink:href="#linear-gradient"/><linearGradient id="linear-gradient-5" x1="13.65" x2="21.73" y1="12.61" y2="12.61" xlink:href="#linear-gradient"/><linearGradient id="linear-gradient-6" x1="13.65" x2="20.68" y1="5.01" y2="5.01" xlink:href="#linear-gradient"/><linearGradient id="linear-gradient-7" x1="13.65" x2="21.73" y1="9.22" y2="9.22" xlink:href="#linear-gradient"/><linearGradient id="linear-gradient-8" x2="45.95" y1="44.81" y2="44.81" xlink:href="#linear-gradient"/><linearGradient id="linear-gradient-9" x1="5.56" x2="7.56" y1="35.21" y2="35.21" xlink:href="#linear-gradient"/><linearGradient id="linear-gradient-10" x1="5.56" x2="7.56" y1="50.54" y2="50.54" xlink:href="#linear-gradient"/><linearGradient id="linear-gradient-11" x1="32.3" x2="34.3" y1="45" y2="45" xlink:href="#linear-gradient"/><linearGradient id="linear-gradient-12" x1="32.3" x2="40.51" y1="44.88" y2="44.88" xlink:href="#linear-gradient"/></defs><title>Design_2</title><g id="Layer_2"><g id="Layer_1-2"><path d="M11.3 7.92L8.62 1 5.98 7.92v16.3h5.3V7.92z" class="cls-1"/><path d="M5.98 7.92h5.3" class="cls-2"/><path d="M29.08 7.92L26.43 1l-2.66 6.92v16.3h5.3V7.92z" class="cls-3"/><path d="M23.77 7.92h5.3" class="cls-4"/><path d="M15.62 1h4.14a1 1 0 0 1 1 1v22.22h-6.1V2a1 1 0 0 1 .96-1z" class="cls-5"/><path d="M14.65 5h5.03" class="cls-6"/><path d="M14.65 9.22h6.08" class="cls-7"/><path d="M45 39.3v12a4.55 4.55 0 0 1-4.27 4.8H33.5v9.3H1V24.22h32.5v10.3h7.18a4.55 4.55 0 0 1 4.32 4.8z" class="cls-8"/><path d="M6.56 32.4V38" class="cls-9"/><path d="M6.56 43.8v13.5" class="cls-10"/><path d="M33.3 51.5v-13" class="cls-11"/><path d="M33.3 40.25h6.2v9.26h-6.2z" class="cls-12"/></g></g></svg>