<svg xmlns="http://www.w3.org/2000/svg" xmlns:xlink="http://www.w3.org/1999/xlink" viewBox="0 0 62.38 62.38"><defs><style>.cls-1,.cls-2{fill:none;stroke-linecap:round;stroke-linejoin:round;stroke-width:2px;}.cls-1{stroke:url(#linear-gradient);}.cls-2{stroke:url(#linear-gradient-2);}</style><linearGradient id="linear-gradient" x2="62.38" y1="31.19" y2="31.19" gradientUnits="userSpaceOnUse"><stop offset="0" stop-color="#ff795f"/><stop offset="1" stop-color="#ce1768"/></linearGradient><linearGradient id="linear-gradient-2" x1="16.95" x2="45.43" y1="30.19" y2="30.19" xlink:href="#linear-gradient"/></defs><title>Devops</title><g id="Layer_2"><g id="Layer_1-2"><path d="M52.77 40.12v.1a9.7 9.7 0 0 0 .6 8.9l1 1.6-3.6 3.6-1.6-1a9.72 9.72 0 0 0-8.92-.6h-.1a9.92 9.92 0 0 0-6 6.88l-.4 1.73h-5.1l-.4-1.73a9.94 9.94 0 0 0-6-6.87h-.1a9.7 9.7 0 0 0-8.92.6l-1.6 1L8 50.74l1-1.63a9.7 9.7 0 0 0 .6-8.9v-.1a9.9 9.9 0 0 0-6.86-6L1 33.74v-5.1l1.74-.4a9.94 9.94 0 0 0 6.87-6v-.1a9.7 9.7 0 0 0-.6-8.9l-1-1.6L11.65 8l1.62 1a9.7 9.7 0 0 0 8.9.6h.1a9.94 9.94 0 0 0 6-6.87L28.63 1h5.1l.4 1.73a9.92 9.92 0 0 0 6 6.87h.1a9.7 9.7 0 0 0 8.88-.6l1.6-1 3.62 3.6-1 1.6a9.7 9.7 0 0 0-.6 8.93v.1a9.94 9.94 0 0 0 6.86 6l1.73.4v5.1l-1.73.4a9.92 9.92 0 0 0-6.83 6z" class="cls-1"/><circle cx="31.19" cy="30.19" r="13.24" class="cls-2"/></g></g></svg>