<svg xmlns="http://www.w3.org/2000/svg" xmlns:xlink="http://www.w3.org/1999/xlink" viewBox="0 0 95.19 57.68"><defs><style>.cls-1,.cls-2,.cls-3,.cls-4,.cls-5,.cls-6{fill:none;stroke-linecap:round;stroke-linejoin:round;stroke-width:2px;}.cls-1{stroke:url(#linear-gradient);}.cls-2{stroke:url(#linear-gradient-2);}.cls-3{stroke:url(#linear-gradient-3);}.cls-4{stroke:url(#linear-gradient-4);}.cls-5{stroke:url(#linear-gradient-5);}.cls-6{stroke:url(#linear-gradient-6);}</style><linearGradient id="linear-gradient" x1="11.49" x2="83.7" y1="25.82" y2="25.82" gradientUnits="userSpaceOnUse"><stop offset="0" stop-color="#ff795f"/><stop offset="1" stop-color="#ce1768"/></linearGradient><linearGradient id="linear-gradient-2" x2="95.19" y1="53.66" y2="53.66" xlink:href="#linear-gradient"/><linearGradient id="linear-gradient-3" x1="15.78" x2="78.4" y1="25.86" y2="25.86" xlink:href="#linear-gradient"/><linearGradient id="linear-gradient-4" x1="36.27" x2="38.27" y1="26.49" y2="26.49" xlink:href="#linear-gradient"/><linearGradient id="linear-gradient-5" x1="-178.44" x2="-176.44" y1="10.53" y2="10.53" gradientTransform="translate(-130.14 37.02) rotate(180)" xlink:href="#linear-gradient"/><linearGradient id="linear-gradient-6" x1="-186.72" x2="-184.72" y1="10.53" y2="10.53" gradientTransform="translate(-130.14 37.02) rotate(180)" xlink:href="#linear-gradient"/></defs><title>Digital transformation</title><g id="Layer_2"><g id="Layer_1-2"><path d="M17.42 1h60.35a4.93 4.93 0 0 1 4.93 4.93v44.7H12.5V5.93A4.93 4.93 0 0 1 17.4 1z" class="cls-1"/><path d="M1 50.63h93.2a6.05 6.05 0 0 1-6.06 6.05H7.04A6.05 6.05 0 0 1 1 50.63z" class="cls-2"/><path d="M16.78 5.55H77.4v40.6H16.78z" class="cls-3"/><path d="M37.27 15.5v22" class="cls-4"/><path d="M47.3 30.93v-8.88" class="cls-5"/><path d="M55.58 36.9V16.08" class="cls-6"/></g></g></svg>